<svg xmlns="http://www.w3.org/2000/svg" xmlns:xlink="http://www.w3.org/1999/xlink" width="1440" height="622" version="1.1" viewBox="0 0 1440 622"><defs><path id="path-1" d="M0 .062h51.756v91.667H0z"/><path id="path-3" d="M0 .84h11.665v7.002H0z"/><path id="path-5" d="M.372.474H10.71v10.669H.372z"/><path id="path-7" d="M1.501 183.991h67v-183h-67z"/><path id="path-9" d="M0 .024h19.906v35.87H0z"/><path id="path-11" d="M0 .221h63.249v50.673H0z"/><path id="path-13" d="M.274.137h6.098v12.229H.274z"/><path id="path-15" d="M.5 50h86V0H.5z"/><path id="path-17" d="M.615 60h105.77V0H.615z"/><path id="path-19" d="M0 61h105V0H0z"/><path id="path-21" d="M.313.39h37.108v54.553H.313z"/><path id="path-23" d="M.084.182h79.113v19.215H.084z"/><path id="path-25" d="M.074.176h89.188v9.06H.074z"/><path id="path-27" d="M.173.206H20.68V28.97H.173z"/><path id="path-29" d="M.045.1h42.523v10.568H.045z"/><path id="path-31" d="M.04.088h48.558v4.53H.04z"/><path id="path-33" d="M.008.127h7.886v7.78H.008z"/></defs><g id="Page-1" fill="none" fill-rule="evenodd" stroke="none" stroke-width="1"><g id="PropCare_homepage02-a" transform="translate(0 -4725)"><g id="footerGraphic" transform="translate(-12 4725)"><path id="Path-3-Copy" fill="#F7FCFF" d="M12 404.205h1439.481v-144.61L12 .483z" transform="matrix(-1 0 0 1 1463.481 0)"/><path id="Path-3" fill="#F0FAFF" d="M12 574.205h1439.481v-144.61L12 170.483z"/><g id="Group-22" opacity=".6" transform="translate(0 341)"><g id="Group-23"><path id="Rectangle-Copy-13" fill="#D1E8F8" d="M548.5 219 868 192.6v49.803l-319.5-.92z" transform="matrix(-1 0 0 1 1416.5 0)"/><path id="Rectangle-Copy-23" fill="#D1E8F8" d="M58.5 209 378 182.6v49.803l-319.5-.92z"/><path id="Rectangle-Copy-12" fill="#C3E1F7" d="m632 52 61-20v38l-61 20z" transform="matrix(1 0 0 -1 0 122)"/><path id="Rectangle" fill="#C3E1F7" d="m615 60 95 20v176h-95z"/><path id="Rectangle-Copy-19" fill="#C3E1F7" d="m493.103 1 66-.918V256h-66z"/><path id="Rectangle-Copy-25" fill="#B5DCF7" d="m559.103 118.577 66-.495V256h-66z" transform="matrix(-1 0 0 1 1184.207 0)"/><path id="Rectangle-Copy-21" fill="#EBF6FF" d="m432.5 49.743 19-.743v206.918h-19z"/><path id="Rectangle-Copy-22" fill="#EBF6FF" d="m392.5 9.743 40 9.257v206.918h-40z"/><path id="Rectangle-Copy-20" fill="#DDEFFE" d="M540.5 1.39 559.103.082V256H540.5z"/><path id="Rectangle-Copy-15" fill="#C3E1F7" d="M318 88.804V51l12.103 14.107v26.804z" transform="matrix(-1 0 0 1 648.103 0)"/><path id="Rectangle-Copy-16" fill="#D7EDFE" d="m239 63 72-40v233h-62z"/><path id="Rectangle-Copy-17" fill="#D7EDFE" d="m0 3 72 20v233H10z"/><path id="Rectangle-Copy-14" fill="#C3E1F7" d="m283 81 65.57 14.107V219.25H283z" transform="matrix(-1 0 0 1 631.57 0)"/><path id="Rectangle-Copy-7" fill="#D6EEFF" d="m705 146 45-20v130h-45z"/><path id="Rectangle-Copy-18" fill="#C5E3FC" d="M46 241.095V51l54.103-2.272V232.91z" transform="matrix(-1 0 0 1 146.103 0)"/><path id="Rectangle-Copy-8" fill="#E1F1FC" d="m793.897 63 72-40v233h-62z"/><path id="Rectangle-Copy-9" fill="#D1E8F8" d="m877 29 62-6v233h-62z"/><path id="Rectangle-Copy-11" fill="#D1E8F8" d="m933 168 142-70v158H933z"/><path id="Rectangle-Copy-10" fill="#D1E8F8" d="m854 74 45 10v172h-45z"/><path id="Rectangle-Copy-24" fill="#D1E8F8" d="m781 150 26 5.824V256h-26z"/></g></g><g id="Group-24" transform="translate(141 358)"><path id="Fill-1" fill="#B7D05E" d="M53.739 210.5c-.269-.06-.476-.11-.62-.14.17-7.029.3-15.586.248-24.81v-.12c-.01-1.614-.026-3.254-.047-4.903-.16-12.773-.718-27.903-2.16-41.914-1.26-12.277-3.204-23.691-6.16-31.913l.59-.2c2.144 5.96 3.751 13.585 4.96 21.992v.01c2.378 16.533 3.189 36.104 3.39 52.02.145 11.194.006 21.666-.201 29.978"/><path id="Fill-3" fill="#B7D05E" d="m61 212.5-.603-.105a4096.582 4096.582 0 0 0-1.36-22.802c-.128-2.094-.266-4.237-.405-6.431-.113-1.793-.232-3.62-.35-5.479-.816-12.4-1.765-26.098-2.833-39.97-.217-2.84-.44-5.69-.667-8.534-1.038-12.897-2.17-25.748-3.381-37.672C49.444 72.175 47.284 55.292 45 44.63l.583-.13c1.844 8.619 3.609 21.3 5.254 36.049a.171.171 0 0 1 .005.05c1.404 12.616 2.724 26.744 3.92 41.133.208 2.473.41 4.957.613 7.437a3321.31 3321.31 0 0 1 3.158 43.37 2911.106 2911.106 0 0 1 1.023 15.856c.154 2.394.297 4.718.43 6.962.396 6.46.737 12.25 1.014 17.143"/><path id="Fill-5" fill="#B7D05E" d="M57.723 205.12c.094 2.221.188 4.358.277 6.38-.141-.03-.277-.055-.413-.08l-.225-.045c-.93-21.395-2.174-54.538-2.341-82.294-.016-2.521-.021-5.003-.021-7.425.016-8.807.162-16.861.491-23.527v-.01c.304-6.266.774-11.309 1.448-14.619l.616.115c-.543 2.671-.95 6.47-1.248 11.14-.575 8.922-.743 20.995-.659 34.316.016 2.791.042 5.632.078 8.518.298 23.113 1.208 48.627 1.997 67.53"/><path id="Fill-7" fill="#B7D05E" d="M64 129.604c-.991 5.602-1.808 12.391-2.477 19.773-.808 8.874-1.412 18.604-1.853 28.149-.09 1.826-.169 3.641-.243 5.442a1228.544 1228.544 0 0 0-.56 16.455c-.005.005-.005.01 0 .015-.119 4.317-.208 8.38-.273 12.062-.069-.015-.138-.03-.202-.04-.134-.03-.263-.054-.392-.08.035-1.99.08-4.088.129-6.277.193-8.262.485-17.822.946-27.577.08-1.701.164-3.402.253-5.109.535-10.211 1.253-20.424 2.224-29.377.54-4.97 1.155-9.556 1.859-13.54l.589.104Z"/><path id="Fill-9" fill="#B7D05E" d="M107 102.163S100.798 59.83 85.294 79.9C74.59 93.756 67.602 113.314 64.3 124.096a62.024 62.024 0 0 0-2.607 14.54L61 150.5c33.638-87.963 46-48.337 46-48.337"/><path id="Fill-11" fill="#B7D05E" d="M114.582 51.593s6.152-40.518-28.754-22.454C52.38 46.449 56.125 98.5 56.125 98.5c2.004-8.682 5.623-31.88 17.573-46.907 31.66-39.813 40.884 0 40.884 0"/><path id="Fill-13" fill="#B7D05E" d="M79 180.087c-19.92-3.93-21 13.151-21 13.151v6.262c1.684-10.789 21-19.413 21-19.413"/><g id="Group-17" transform="translate(0 .5)"><mask id="mask-2" fill="#fff"><use xlink:href="#path-1"/></mask><path id="Fill-15" fill="#B7D05E" d="M30.045 6.615C10.529-8.13 0 6.615 0 6.615s37.516 1.834 51.756 85.114c0 0-2.194-70.37-21.711-85.114" mask="url(#mask-2)"/></g><path id="Fill-18" fill="#B7D05E" d="M14 66.5s31.636 40.734 38 74l-.698-7.78S50.047 73.635 14 66.5"/><path id="Fill-20" fill="#868D35" d="m52 140.5.982 12c.105-3.819-.258-7.85-.982-12"/><path id="Fill-22" fill="#B7D05E" d="M28 155.5s24.366 25.619 26 31c0 0-9.774-29.463-26-31"/></g><path id="Rectangle" fill="#F0F8FF" d="M598 580h854v42H598z"/><g id="Group-63" transform="scale(-1 1) rotate(2 -12231.001 -21103.662)"><g id="Group-3" transform="translate(.174 50.974)"><mask id="mask-4" fill="#fff"><use xlink:href="#path-3"/></mask><path id="Fill-1" fill="#303030" d="M1.163 3.087C-.084 4.428-.293 6.687.366 7.282l.263.282c.657.612 1.623.127 2.334-.606 1.707-1.841 4.032-1.841 5.738 0 .712.733 1.677 1.218 2.334.606l.263-.282c.66-.596.45-2.854-.796-4.195-2.777-2.996-6.562-2.996-9.34 0" mask="url(#mask-4)"/></g><path id="Fill-4" fill="#FFA47C" d="M18.372 75.837c-.193-.254-.65-.352-1.017-.217h-.005c-.363.134-.503.449-.312.7l1.495 1.962c.194.254.651.351 1.018.217l.003-.001c.364-.134.504-.448.312-.7l-1.494-1.961Z"/><path id="Fill-6" fill="#FFA47C" d="M19.337 74.802c-.193-.253-.651-.351-1.018-.216h-.003c-.365.134-.505.448-.314.7l1.495 1.962c.194.254.651.351 1.02.217v-.001c.365-.134.505-.448.315-.7l-1.495-1.962Z"/><path id="Fill-8" fill="#FFA47C" d="M20.37 75.767c-.191-.254-.65-.351-1.017-.218l-.003.002c-.363.133-.505.448-.314.699l1.496 1.963c.193.252.65.35 1.018.216h.003c.364-.134.504-.449.313-.7l-1.495-1.962Z"/><path id="Fill-10" fill="#FFA47C" d="M21.335 74.732c-.193-.252-.65-.351-1.017-.216h-.004c-.364.134-.504.448-.313.7l1.495 1.962c.194.253.651.351 1.017.217l.003-.002c.365-.132.505-.447.315-.698l-1.496-1.963Z"/><path id="Fill-12" fill="#FFA47C" d="M16.745 70.578 13.9 73.525s.282 1.273 1.3 3.345c.66 1.34 2.31 3.708 2.31 3.708s1.566-1.458 2.217-1.958c.65-.503 2.173-.078 2.173-.078s-1.01-3.585-1.52-4.37c-.51-.786-3.635-3.594-3.635-3.594"/><path id="Fill-14" fill="#8D3B26" d="M40.022 3.345c-3.808-2.117-6.264 2.76-6.264 2.76l.503 6.748s1.437 2.878.782 6.914c-.656 4.037 3.048 5.013 4.327 5.045 1.28.032 1.795-1.394 1.228-1.43-.568-.037 1.072-8.218 2.478-10.233 1.405-2.015.756-7.687-3.054-9.804"/><path id="Fill-16" fill="#303030" d="M20.764 30.852c-2.19-1.086-7.339 4.595-10.23 11.426-5.024 11.874-9.18 13.296-4.946 16.283 5.251 3.702 5.815-1.855 11.549-11.276 4.482-7.366 8.165-14.183 3.627-16.433"/><path id="Fill-18" fill="#303030" d="M48.054 34.531c-.9-2.042-5.553-2.946-7.684-3.587-2.178-.654-8.618-.878-8.618-.878s-8.287.974-10.494.891c-.931-.035-2.484 4.222-2.844 5.19-2.016 5.42-3.594 10.221-.398 15.312.814 1.3 2.335 7.919 2.335 13.218 0 2.207.024 10.69-.805 14.893 5.078 0 7.128.496 12.206.496h14.222c-1.57-4.129-3.425-8.829-3.685-11.02-1.92-16.171 7.123-31.426 5.765-34.515"/><path id="Fill-20" fill="#FFBD95" d="M34.605 18.12h-7.79s.063 6.218-.562 7.868c-.625 1.65-3.106 3.644-3.106 3.644l4.659 2.488 9.34-2.917s-1.354-1.565-1.979-3.215c-.624-1.65-.562-7.868-.562-7.868"/><path id="Fill-22" fill="#FFA47C" d="M34.109 18.19h-7.673s.062 6.218-.554 7.868c-.615 1.65-3.734 4.06-3.734 4.06l5.264 2.071 6.736-10.92v-.004c-.052-1.658-.04-3.076-.04-3.076"/><path id="Fill-24" fill="#FFBD95" d="M32.878 3.465c-4.612-1.421-9.499 1.457-10.774 7.794-1.294 6.428 1.297 12.753 4.33 13.69 3.116.96 9.857-2.442 11.713-8.632 1.857-6.187-.656-11.43-5.269-12.852"/><path id="Fill-26" fill="#8D3B26" d="M26.693 4.063c-.122.52.381 2.56.582 3.398.416 1.74 1.903 2.967 5.43 3.753 2.525.563 3.686 4.353 3.462 5.76-.084.537-1.056 3.05-1.056 3.05s6.215-4.552 2.229-12.026C33.354.525 26.814 3.543 26.693 4.063"/><path id="Fill-28" fill="#8D3B26" d="M26.562 3.375c-4.63.697-5.058 6.895-5.058 6.895s2.437-1.545 4.771-1.758c2.334-.214 2.696-2.805 2.696-2.805s2.221-3.03-2.409-2.332"/><path id="Fill-30" fill="#191919" d="m23.377 31.263 4 2.027-.77-3z"/><path id="Fill-32" fill="#191919" d="m27.41 34.167 3-1.192-2.27-1.808z"/><path id="Fill-34" fill="#424242" d="m28.372 31.389 2.505 3.605 8.495-3.605-2.682-3.395z"/><path id="Fill-36" fill="#424242" d="m20.326 30.345 3.482 3.016 2.518-3.06-2.666-2.94z"/><path id="Fill-38" fill="#303030" d="M42.627 33.64c-4.496 3.637.654 10.632 7.444 17.121 8.688 8.301 12.373 12.639 15.635 9.54 3.593-3.415-1.02-5.575-9.517-16.652-4.89-6.375-11.393-11.767-13.562-10.01"/><g id="Group-42" transform="translate(45.547 173.484)"><mask id="mask-6" fill="#fff"><use xlink:href="#path-5"/></mask><path id="Fill-40" fill="#191919" d="M2.837 2.309S.335 6.399.372 7.475c.033 1.008.093 3.704 3.204 3.668 2.057-.024 5.702-2.871 6.544-4.075.692-.99.584-6.594.584-6.594L2.837 2.31Z" mask="url(#mask-6)"/></g><mask id="mask-8" fill="#fff"><use xlink:href="#path-7"/></mask><path id="Fill-43" fill="#191919" d="M27.403 176.128h5v-.816h-5z" mask="url(#mask-8)"/><path id="Fill-45" fill="#191919" d="M26.357 167.702s-2.834 1.026-7.09 5.268c-1.682 1.678-6.982.578-6.982 3.673 0 .715 2.844.82 4.457.823 5.525.015 6.333-1.33 8.493-1.644 2.161-.315 4.665-.407 6.76-.407.718 0 1.368-2.491 1.282-3.672-.072-.98-.564-3.107-1.289-4.206-.149-.226-5.631.165-5.631.165" mask="url(#mask-8)"/><path id="Fill-46" fill="#191919" d="M38.522 88.672c-.414-3.881-9.471-12.783-9.471-12.783l-10.52-.62c0 1.856-1.978 2.636-1.978 18.86 0 13.963 2.694 31.06 2.962 33.54.414 3.831 3.965 40.72 3.965 40.72s1.314 1.864 4.586 1.88c5.08.023 6.35-1.417 6.35-1.417s.313-14.943.42-22.198c.09-6.226-2.572-15.56-2.908-17.867-.338-2.306.497-4.282 1.846-14.049 1.35-9.768 5.162-22.185 4.748-26.066" mask="url(#mask-8)"/><path id="Fill-47" fill="#303030" d="M50.948 128.291c-1.589-8.274-1.473-36.497-2.897-42.344-1.423-5.85-4.934-11.15-4.934-11.15H24.65l.56 11.986s12.695 41.705 13.735 47.398c1.04 5.692 9.534 41.616 9.534 41.616l9.17-1.426s-.824-17.27-2.206-25.87c-1.382-8.599-3.95-17.37-4.495-20.21" mask="url(#mask-8)"/><path id="Fill-48" fill="#191919" d="M51.025 129.058c-1.574-7.52-1.46-36.445-2.87-42.284-1.41-5.841-4.889-11.135-4.889-11.135l-9.602.293s6.023 7.22 9.262 24.41c.737 3.91 3.599 30.156 3.818 31.642.212 1.45 6.998 41.79 7.311 43.655l3.61-.566s-.818-17.245-2.187-25.832c-1.37-8.587-3.862-17.357-4.453-20.183" mask="url(#mask-8)"/><path id="Fill-49" fill="#FFA47C" d="M4.431 54.086C.691 56.35 2.803 60.25 7.25 64.876c4.388 4.565 8.646 11.039 10.89 9.798 1.644-.91-2.64-8.81-5.517-14.384-2.498-4.84-6.385-7.297-8.19-6.204" mask="url(#mask-8)"/><path id="Fill-50" fill="#191919" d="M43.28 73.14H17.576c-.907 0-1.648.715-1.648 1.587v2.828c0 .871.741 1.586 1.648 1.586H43.28c.906 0 1.648-.715 1.648-1.586v-2.828c0-.872-.742-1.586-1.648-1.586" mask="url(#mask-8)"/><path id="Fill-51" fill="#303030" d="M30.062 1.096c-7.997.002-8.579 7.764-8.579 7.764s4.508 2.364 10.444 2.23c5.937-.132 7.555-.156 7.555-.156s.351-9.838-9.42-9.838" mask="url(#mask-8)"/><path id="Fill-52" fill="#191919" d="M25.277 9.655c-4.095-.629-4.6-1.387-4.6-1.387s-5.188 3.27-5.03 3.514c.159.244 1.897-1.103 4.607-.716 3.211.462 5.716 2.085 5.947 2.198.231.115 9.442-2.435 9.442-2.435-.064-.447-2.972-.042-10.366-1.174" mask="url(#mask-8)"/><path id="Fill-53" fill="#D1D1D1" d="M24.36 4.376c-1.092-.27-1.615.525-1.833 1.612-.218 1.087.5 2.19 1.042 2.324.417.104 1.615-.524 1.834-1.61.218-1.088.062-2.051-1.043-2.326" mask="url(#mask-8)"/><path id="Fill-55" fill="#D1D1D1" d="M49.91 37.434c-.594.436.177 2.316 1.723 4.199 1.545 1.882 3.281 3.054 3.875 2.617.596-.438-.176-2.319-1.721-4.201-1.547-1.882-3.283-3.053-3.877-2.615" mask="url(#mask-8)"/><path id="Fill-56" fill="#303030" d="M57.389 53.267c-1.283 1.34-1.497 3.597-.82 4.193l.271.28c.676.613 1.669.128 2.4-.605 1.756-1.84 4.149-1.84 5.904 0 .732.733 1.725 1.218 2.4.606l.272-.28c.677-.597.463-2.853-.82-4.194-2.857-2.997-6.75-2.997-9.607 0" mask="url(#mask-8)"/><path id="Fill-57" fill="#FFA47C" d="M54.153 59.764c-5.237 5.355-12.882 12.904-11.448 14.208 1.958 1.78 9.03-4.252 15.518-8.221 6.571-4.023 10.341-7.749 7.156-10.926-1.538-1.535-6.681.293-11.226 4.94" mask="url(#mask-8)"/><path id="Fill-58" fill="#FFA47C" d="M43.76 74.893a.606.606 0 0 0-.85.005l-1.8 1.811a.592.592 0 0 0 .004.839l.002.002c.236.231.617.229.85-.005l1.8-1.81a.592.592 0 0 0-.004-.84l-.003-.002Z" mask="url(#mask-8)"/><path id="Fill-59" fill="#FFA47C" d="M42.725 73.93a.604.604 0 0 0-.85.005l-1.8 1.81a.595.595 0 0 0 .004.838l.002.002c.236.231.618.23.85-.004l1.801-1.81a.594.594 0 0 0-.005-.84l-.002-.001Z" mask="url(#mask-8)"/><path id="Fill-60" fill="#FFA47C" d="M41.726 73.964a.606.606 0 0 0-.85.005l-1.8 1.81c-.23.232-.229.61.004.84l.002.002c.236.23.618.228.85-.005l1.8-1.811a.591.591 0 0 0-.005-.839l-.001-.002Z" mask="url(#mask-8)"/><path id="Fill-61" fill="#FFA47C" d="M40.691 73a.605.605 0 0 0-.85.005l-1.8 1.81a.596.596 0 0 0 .004.84l.003.001c.235.23.618.229.85-.005l1.8-1.81a.593.593 0 0 0-.004-.839L40.69 73Z" mask="url(#mask-8)"/><path id="Fill-62" fill="#FFA47C" d="M41.534 72.916c-.699.573-2.632 3.578-2.632 3.578s1.57.065 2.056.722 1.59 2.472 1.59 2.472 2.216-1.692 3.207-2.73c1.534-1.606 2.147-2.698 2.147-2.698l-1.923-3.572s-3.744 1.655-4.445 2.228" mask="url(#mask-8)"/></g><g id="Group-24-Copy" transform="translate(117 487)"><path id="Fill-1" fill="#B7D05E" d="M20.884 83c-.12-.024-.211-.044-.276-.055.076-2.771.134-6.145.11-9.781v-.047c-.004-.637-.01-1.283-.02-1.933-.071-5.036-.32-11-.96-16.524-.56-4.84-1.424-9.34-2.738-12.581l.262-.079c.953 2.35 1.667 5.356 2.205 8.67v.004c1.056 6.518 1.417 14.233 1.507 20.508A281.13 281.13 0 0 1 20.884 83"/><path id="Fill-3" fill="#B7D05E" d="M24 84a52.753 52.753 0 0 1-.226-.041 1685.221 1685.221 0 0 0-.51-8.958c-.048-.823-.1-1.665-.152-2.527l-.131-2.152a1493.67 1493.67 0 0 0-1.313-19.055 755.814 755.814 0 0 0-1.268-14.8c-.734-7.595-1.544-14.227-2.4-18.416l.219-.051c.691 3.386 1.353 8.368 1.97 14.162.002.006.002.014.002.02.526 4.956 1.021 10.506 1.47 16.159.078.972.154 1.948.23 2.922a1365.973 1365.973 0 0 1 1.312 19.059c.09 1.452.176 2.859.256 4.208.057.94.11 1.854.16 2.735.15 2.538.277 4.813.381 6.735"/><path id="Fill-5" fill="#B7D05E" d="M22.908 80.508c.031.868.062 1.702.092 2.492-.047-.012-.092-.021-.138-.031l-.075-.018c-.31-8.357-.724-21.304-.78-32.146-.005-.985-.007-1.954-.007-2.9.005-3.44.054-6.587.164-9.19v-.004c.1-2.448.258-4.418.482-5.711l.206.045c-.181 1.043-.317 2.528-.416 4.351-.192 3.485-.248 8.202-.22 13.405.005 1.09.014 2.2.026 3.328.1 9.028.403 18.994.666 26.379"/><path id="Fill-7" fill="#B7D05E" d="M25 51.04c-.33 2.187-.603 4.836-.826 7.717-.269 3.463-.47 7.26-.617 10.985-.03.712-.057 1.42-.081 2.123A560.966 560.966 0 0 0 23.198 83l-.067-.016-.131-.03a569.91 569.91 0 0 1 .358-13.212c.027-.664.055-1.328.085-1.994.178-3.985.417-7.97.741-11.464.18-1.94.385-3.73.62-5.284l.196.04Z"/><path id="Fill-9" fill="#B7D05E" d="M42 39.92s-2.427-16.71-8.494-8.788c-4.188 5.47-6.923 13.19-8.214 17.445a24.677 24.677 0 0 0-1.02 5.74L24 59c13.163-34.722 18-19.08 18-19.08"/><path id="Fill-11" fill="#B7D05E" d="M44.837 20.618s2.398-15.88-11.21-8.8C20.59 18.602 22.05 39 22.05 39c.781-3.402 2.192-12.493 6.85-18.382 12.342-15.603 15.938 0 15.938 0"/><path id="Fill-13" fill="#B7D05E" d="M31 71.235c-7.588-1.572-8 5.26-8 5.26V79c.641-4.315 8-7.765 8-7.765"/><g id="Group-17"><mask id="mask-10" fill="#fff"><use xlink:href="#path-9"/></mask><path id="Fill-15" fill="#B7D05E" d="M11.556 2.588C4.049-3.182 0 2.588 0 2.588s14.43.718 19.906 33.306c0 0-.844-27.536-8.35-33.306" mask="url(#mask-10)"/></g><path id="Fill-18" fill="#B7D05E" d="M5 26s12.488 15.963 15 29l-.276-3.049S19.23 28.796 5 26"/><path id="Fill-20" fill="#868D35" d="m20.804 55 .385 5c.04-1.591-.101-3.271-.385-5"/><path id="Fill-22" fill="#B7D05E" d="M11 61s9.371 9.917 10 12c0 0-3.76-11.405-10-12"/></g><g id="Group-38" transform="translate(64 434)"><g id="Group-25"><path id="Fill-1" fill="#36572B" d="M33.135 73.39c18.299 0 33.134-14.946 33.134-33.38 0-4.978-1.079-9.695-3.02-13.937C58.009 14.596 46.497 6.63 33.135 6.63 14.835 6.63 0 21.575 0 40.01a33.39 33.39 0 0 0 4.79 17.293c5.806 9.641 16.329 16.087 28.345 16.087"/><path id="Fill-3" fill="#45613C" d="M66.787 70.396c12.804 0 23.187-10.46 23.187-23.358 0-.745-.033-1.48-.103-2.208-1.104-11.865-11.019-21.15-23.084-21.15-12.804 0-23.187 10.46-23.187 23.358a23.381 23.381 0 0 0 10.49 19.547 22.954 22.954 0 0 0 12.697 3.811"/><path id="Fill-5" fill="#925E2E" d="M68.893 55.168s0 4.673-.35 10.722a209.75 209.75 0 0 1-.314 4.46c-.176 2.127-.397 4.321-.68 6.464-.041.321-.088.648-.129.97-.85 6.001-2.178 11.458-4.273 13.766-.845.934-1.555 3.003-2.163 5.856-.731 3.45-1.298 8.04-1.746 13.154-.396 4.596-.695 9.607-.916 14.581l-.046.986a675.932 675.932 0 0 0-.515 18.735H46.134V99.434s-16.616 0-16.003-21.085c.052-1.707.108-3.372.17-5 .005-.026.005-.058.005-.083.088-2.18.186-4.28.294-6.293.582-11.214 1.406-19.716 1.787-23.315.04-.4.077-.737.108-1.012.061-.58.097-.881.097-.881l1.427 1.426.123.124s-.036.239-.098.685c-.365 2.635-1.606 12.47-1.462 22.76.031 2.21.13 4.44.309 6.625.016.176.03.353.047.529 1.08 12.044 4.865 22.517 15.158 20.115a19.961 19.961 0 0 0 5.479-2.142c5.427-3.128 8.562-8.538 10.334-14.342.077-.244.149-.488.216-.731.613-2.143 1.04-4.327 1.339-6.459.108-.747.195-1.488.268-2.214.082-.804.144-1.593.195-2.366.242-3.818.129-7.19-.031-9.471-.129-1.914-.288-3.066-.288-3.066l3.13 1.841.155.089Z"/><g id="Group-9" transform="translate(0 6.409)"><mask id="mask-12" fill="#fff"><use xlink:href="#path-11"/></mask><path id="Fill-7" fill="#48753A" d="M24.927 38.975c19.022-3.58 31.55-11.865 38.322-19.31C58.009 8.186 46.497.22 33.135.22 14.835.221 0 15.166 0 33.601c0 6.33 1.748 12.25 4.79 17.293.91-4.54 5.843-9.231 20.137-11.919" mask="url(#mask-12)"/></g><path id="Fill-10" fill="#538742" d="M73.558 53.446c7.687-2.232 12.895-5.296 16.313-8.616-1.104-11.865-11.019-21.15-23.084-21.15-12.804 0-23.187 10.46-23.187 23.358a23.383 23.383 0 0 0 10.49 19.547c2.35-4.474 7.67-9.716 19.468-13.14"/><path id="Fill-12" fill="#538742" d="m68.891 26.612 2 .62s3.146-8.613 3.351-9.784c.205-1.172-5.351 9.164-5.351 9.164"/><path id="Fill-14" fill="#538742" d="m87.785 27.232-9.918 3.032s.069.895 1.368.895c1.3 0 8.55-3.927 8.55-3.927"/><path id="Fill-16" fill="#538742" d="M84.365 48.179h-2.53s.478 3.79 2.53 6.201c2.052 2.412 0-6.201 0-6.201"/><g id="Group-20" transform="translate(23.069 .19)"><mask id="mask-14" fill="#fff"><use xlink:href="#path-13"/></mask><path id="Fill-18" fill="#48753A" d="M.422.17C-.604.926 4.047 12.365 4.047 12.365h2.325S1.448-.588.422.169" mask="url(#mask-14)"/></g><path id="Fill-21" fill="#48753A" d="M34.298 9.73c.41-3.1-1.984-8.337-1.984-8.337v7.855s1.573 3.583 1.984.482"/><path id="Fill-23" fill="#48753A" d="M15.967 54.806c1.436-1.184 1.505-11.588 1.505-11.588l-2.258.826s-.684 11.946.753 10.762"/></g></g><path id="Path-2" fill="#70A74E" d="M12 558.252c85.74 18.676 143.807 11.133 225.047 0 81.24-11.133 172.796-33.274 260.052-18.115C555.269 550.243 641.569 588.197 756 654H12v-95.748Z"/><g id="Group-15" transform="translate(295 487)"><g id="Group-31-Copy-2" transform="matrix(-1 0 0 1 87.5 11)"><path id="Fill-1" fill="#4D8B33" d="M40.433 25.022s-9.42-11.287-13.187-16.418c-3.767-5.13 7.906 24.002 8.872 27.085.966 3.083 4.943 5.751 4.315-10.667"/><path id="Fill-3" fill="#B1C265" d="M48.5 42.487C52.618 36.217 55.5 8 55.5 8c-7.206 6.061-14 33.318-14 33.318s2.882 7.44 7 1.169"/><path id="Fill-5" fill="#79854C" d="M48.032 39.65c1.309-2.613-.436-36.527-1.479-33.453-1.042 3.073-6.985 15.778-6.985 15.778-.888 7.702 7.156 20.287 8.464 17.674"/><path id="Fill-7" fill="#C7CA7F" d="M38.23 32.757C35.959 28.71 13.5 7 13.5 7c.214 6.717 14.145 22.669 14.145 22.669s12.858 7.136 10.586 3.088"/><path id="Fill-9" fill="#5C9E33" d="M49.5 43c-25.23-9.753-49-4.682-49-4.682C3.21 42.692 36.99 43 36.99 43H49.5Z"/><path id="Fill-11" fill="#518330" d="M43.613 42.62C30.771 28.704.5 22 .5 22c8.944 9.088 21.786 17.059 21.786 17.059s34.17 17.477 21.327 3.561"/><path id="Fill-13" fill="#6C9F44" d="M46.832 42.345C39.274 28.09 10.5 14 10.5 14c0 4.496 23.316 25.409 23.316 25.409S54.39 56.6 46.832 42.345"/><path id="Fill-15" fill="#4A8A33" d="M46 41.912C51.624 40.91 72.5 21 72.5 21 67.076 22.015 46 35.004 46 35.004s-5.625 7.91 0 6.908"/><path id="Fill-17" fill="#689C2F" d="M55.932 43.376C62.962 43.686 85.5 29 85.5 29c-6.74 0-22.222 4.277-29.79 6.492-2.853.835-5.271 2.822-6.73 5.52-4.041 7.479.828 2.094 6.952 2.364"/><path id="Fill-19" fill="#689C2F" d="M51.754 37.679C58.134 34.558 71.5 11 71.5 11c-5.983 3.25-17.79 14.409-23.507 19.973a11.581 11.581 0 0 0-3.478 8.014c-.207 8.413 1.68 1.411 7.239-1.308"/><path id="Fill-21" fill="#5F7A25" d="M57.495 39.806C64.38 38.67 83.5 20 83.5 20c-6.547 1.374-20.775 8.63-27.708 12.296-2.613 1.382-4.587 3.778-5.494 6.661-2.515 7.992 1.198 1.839 7.197.849"/><path id="Fill-23" fill="#478B33" d="M82.295 37.03c-2.073-.172-15.422.45-21.156.73a9.903 9.903 0 0 0-6.17 2.538c-2.473 2.235-1.75 3.913 1.618 4.628 4.49.954 28.36-7.676 25.708-7.896"/><path id="Fill-25" fill="#61A23E" d="M45.048 40.871c.494-2.16.572-4.4.287-6.6C44.363 26.765 40.983 3.525 36.034 0c0 0-2.237 30.114 2.448 40.242 3.514 7.596 5.616 4.784 6.566.63"/><path id="Fill-27" fill="#497A2F" d="M45.181 44.609C48.01 41.849 59.5 15 59.5 15c-10.762 6.474-15.553 19.61-15.553 19.61s-1.593 12.76 1.234 9.999"/><mask id="mask-16" fill="#fff"><use xlink:href="#path-15"/></mask><path id="Fill-29" fill="#31535F" d="M14.5 50h56v-9h-56z" mask="url(#mask-16)"/></g><g id="Group-31-Copy-3" transform="matrix(-1 0 0 1 205.5 1)"><path id="Fill-1" fill="#4D8B33" d="M49.728 30.027S38.144 16.482 33.51 10.325C28.876 4.17 43.233 39.127 44.42 42.827c1.188 3.7 6.08 6.901 5.307-12.8"/><path id="Fill-3" fill="#B1C265" d="M59.65 50.984C64.712 43.46 68.258 9.6 68.258 9.6 59.396 16.873 51.04 49.582 51.04 49.582s3.545 8.927 8.61 1.402"/><path id="Fill-5" fill="#79854C" d="M59.074 47.579c1.61-3.135-.536-43.831-1.819-40.143-1.282 3.689-8.59 18.934-8.59 18.934-1.093 9.242 8.8 24.344 10.41 21.209"/><path id="Fill-7" fill="#C7CA7F" d="M47.02 39.309C44.223 34.452 16.602 8.4 16.602 8.4 16.867 16.46 34 35.602 34 35.602s15.814 8.564 13.02 3.707"/><path id="Fill-9" fill="#5C9E33" d="M60.88 51.6C29.85 39.897.614 45.981.614 45.981c3.334 5.25 44.878 5.619 44.878 5.619h15.386Z"/><path id="Fill-11" fill="#518330" d="M53.64 51.144C37.844 34.444.614 26.4.614 26.4c11 10.906 26.794 20.47 26.794 20.47s42.025 20.974 26.23 4.274"/><path id="Fill-13" fill="#6C9F44" d="M57.598 50.814C48.302 33.708 12.914 16.8 12.914 16.8c0 5.395 28.675 30.49 28.675 30.49s25.304 20.63 16.009 3.524"/><path id="Fill-15" fill="#4A8A33" d="M56.574 50.295C63.492 49.092 89.167 25.2 89.167 25.2c-6.672 1.218-32.593 16.805-32.593 16.805s-6.917 9.493 0 8.29"/><path id="Fill-17" fill="#689C2F" d="M68.79 52.05c8.647.373 36.365-17.25 36.365-17.25-8.29 0-27.33 5.132-36.639 7.791-3.508 1.002-6.482 3.386-8.275 6.623-4.972 8.975 1.017 2.513 8.55 2.837"/><path id="Fill-19" fill="#689C2F" d="M63.651 45.215C71.498 41.469 87.937 13.2 87.937 13.2c-7.359 3.9-21.88 17.29-28.912 23.968a13.74 13.74 0 0 0-4.276 9.616c-.255 10.095 2.066 1.694 8.902-1.57"/><path id="Fill-21" fill="#5F7A25" d="M70.712 47.767C79.182 46.404 102.695 24 102.695 24c-8.051 1.65-25.55 10.355-34.078 14.755a13.727 13.727 0 0 0-6.756 7.994c-3.094 9.59 1.473 2.206 8.851 1.018"/><path id="Fill-23" fill="#478B33" d="M101.213 44.435c-2.55-.206-18.967.541-26.02.878-2.788.133-5.475 1.18-7.588 3.044-3.042 2.683-2.151 4.696 1.99 5.555 5.522 1.144 34.88-9.212 31.618-9.477"/><path id="Fill-25" fill="#61A23E" d="M55.404 49.045c.607-2.592.704-5.28.353-7.92C54.561 32.118 50.405 4.23 44.317 0c0 0-2.75 36.136 3.012 48.29 4.322 9.115 6.906 5.741 8.075.755"/><path id="Fill-27" fill="#497A2F" d="M55.568 53.53C59.045 50.22 73.178 18 73.178 18 59.942 25.769 54.05 41.531 54.05 41.531s-1.96 15.312 1.518 12"/><mask id="mask-18" fill="#fff"><use xlink:href="#path-17"/></mask><path id="Fill-29" fill="#31535F" d="M17.833 60h68.874V49.2H17.833z" mask="url(#mask-18)"/></g><g id="Group-31" transform="translate(42)"><path id="Fill-1" fill="#4D8B33" d="M48.919 29.994S37.48 16.074 32.906 9.745c-4.575-6.327 9.6 29.602 10.773 33.405 1.173 3.802 6.002 7.093 5.24-13.156"/><path id="Fill-3" fill="#B1C265" d="M59.5 51.944C64.5 44.317 68 10 68 10c-8.75 7.372-17 40.522-17 40.522s3.5 9.048 8.5 1.422"/><path id="Fill-5" fill="#79854C" d="M58.428 48.567c1.6-3.228-.533-45.12-1.807-41.324-1.275 3.797-8.538 19.491-8.538 19.491-1.085 9.514 8.746 25.06 10.345 21.833"/><path id="Fill-7" fill="#C7CA7F" d="M46.677 39.481C43.95 34.534 17 8 17 8c.257 8.21 16.973 27.706 16.973 27.706s15.43 8.722 12.704 3.775"/><path id="Fill-9" fill="#5C9E33" d="M60 52C29.106 40.622 0 46.537 0 46.537 3.32 51.64 44.68 52 44.68 52H60Z"/><path id="Fill-11" fill="#518330" d="M53.486 52.379C37.852 35.25 1 27 1 27c10.888 11.186 26.522 20.995 26.522 20.995S69.12 69.506 53.486 52.38"/><path id="Fill-13" fill="#6C9F44" d="M56.98 51.181C47.833 33.991 13 17 13 17c0 5.421 28.224 30.64 28.224 30.64s24.906 20.731 15.757 3.541"/><path id="Fill-15" fill="#4A8A33" d="M56.017 51.891C62.805 50.65 88 26 88 26c-6.547 1.257-31.983 17.339-31.983 17.339s-6.788 9.793 0 8.552"/><path id="Fill-17" fill="#689C2F" d="M68.43 53.071C77.124 53.44 105 36 105 36c-8.337 0-27.485 5.078-36.846 7.71a13.863 13.863 0 0 0-8.322 6.553c-5 8.882 1.022 2.487 8.597 2.808"/><path id="Fill-19" fill="#689C2F" d="M62.866 46.515C70.664 42.71 87 14 87 14c-7.313 3.96-21.744 17.56-28.731 24.342a14.096 14.096 0 0 0-4.25 9.767c-.254 10.253 2.053 1.72 8.847-1.594"/><path id="Fill-21" fill="#5F7A25" d="M69.876 49.112C78.383 47.728 102 25 102 25c-8.087 1.673-25.664 10.505-34.228 14.969-3.227 1.682-5.666 4.6-6.786 8.11-3.108 9.729 1.48 2.238 8.89 1.033"/><path id="Fill-23" fill="#478B33" d="M100.745 45.037c-2.573-.215-19.144.563-26.263.914a12.248 12.248 0 0 0-7.659 3.17c-3.07 2.796-2.171 4.892 2.009 5.787 5.573 1.192 35.206-9.596 31.913-9.871"/><path id="Fill-25" fill="#61A23E" d="M55.457 49.954c.593-2.64.688-5.378.345-8.067C54.635 32.712 50.58 4.308 44.64 0c0 0-2.684 36.805 2.939 49.184 4.216 9.284 6.738 5.848 7.878.77"/><path id="Fill-27" fill="#497A2F" d="M55.101 54.53C58.636 51.22 73 19 73 19c-13.452 7.769-19.44 23.531-19.44 23.531s-1.993 15.312 1.541 12"/><mask id="mask-20" fill="#fff"><use xlink:href="#path-19"/></mask><path id="Fill-29" fill="#31535F" d="M18 61h68V50H18z" mask="url(#mask-20)"/></g></g><g id="Group-48" transform="translate(151 334)"><path id="Fill-1" fill="#81A358" d="M88.11 248 83 170.062l.89-.062L89 247.938z"/><path id="Fill-2" fill="#81A358" d="M75.063 246 62 35.055l.937-.055L76 245.945z"/><path id="Fill-3" fill="#81A358" d="M81 251h1V5h-1z"/><path id="Fill-4" fill="#81A358" d="m90.86 249-.86-.02L93.14 101l.86.02z"/><g id="Group-47" transform="translate(29)"><g id="Group-7" transform="translate(31.991)"><mask id="mask-22" fill="#fff"><use xlink:href="#path-21"/></mask><path id="Fill-5" fill="#7AA348" d="M19.823 54.943S-5.907 33.067 1.73 11.232C9.366-10.602 47.067 1.215 35.09 40.606c0 0-3.893 10.16-15.267 14.337" mask="url(#mask-22)"/></g><path id="Fill-8" fill="#6D894A" d="m59.673 43.937-.918-.078 1.993-23.425 1.22-3.476z"/><path id="Fill-10" fill="#6D894A" d="m47.012 44.498-.922-.019.752-37.022.802 5.899z"/><path id="Fill-12" fill="#6D894A" d="M42.252 38.463 37.767 13.06l1.624 3.898 3.769 21.346z"/><path id="Fill-14" fill="#8FBC58" d="M35.554 90.85s-22.3-28.777-10.692-49.114c11.608-20.338 86.315-3.526 52.541 69.867-33.774 73.394-59.872 24.03-59.872 24.03L35.554 90.85Z"/><path id="Fill-16" fill="#86A85A" d="m55.086 143.266-.89-.236 20.261-76.007 2.415-5.481z"/><path id="Fill-18" fill="#86A85A" d="m48.68 136.033-.922-.042 3.902-85.665 1.143-4.832z"/><path id="Fill-20" fill="#86A85A" d="m39.676 107.937-3.829-61.254 1.245 5.14 3.504 56.057z"/><g id="Group-24" transform="translate(14.699 255.603)"><mask id="mask-24" fill="#fff"><use xlink:href="#path-23"/></mask></g><g id="Group-27" transform="translate(9.51 246.552)"><mask id="mask-26" fill="#fff"><use xlink:href="#path-25"/></mask></g><path id="Fill-28" fill="#7CA34D" d="M52.355 116.724s-3.36-49.375-31.77-31.187c-28.408 18.188-35.434 89.486 31.77 111.15v-79.963Z"/><path id="Fill-30" fill="#75934E" d="M56.807 164.188 28.038 94.875l-1.435-5.86 31.056 74.822z"/><path id="Fill-32" fill="#75934E" d="M61.493 169.078c-2.576-.093-6.824-3.296-12.986-9.79-4.803-5.063-10.717-12.09-17.576-20.886-11.67-14.967-18.83-25.331-18.935-25.483l-2.595-5.272c.105.15 10.604 15.247 22.26 30.194 19.392 24.867 26.944 30.213 29.865 30.319l-.033.918Z"/><path id="Fill-34" fill="#75934E" d="M65.795 178.389c-5.922 0-18.036-6.562-36.008-19.502-13.34-9.604-25.116-19.335-25.233-19.433l3.69 1.813c4.483 3.626 43.837 36.203 57.551 36.203v.919Z"/><path id="Fill-36" fill="#75934E" d="M25.621 175.23c.705.385 5.003 1.097 16.088 3 6.177 1.062 21.244 3.547 27.714 3.703l-.022.92c-6.62-.16-21.981-2.704-28.279-3.79-5.113-.883-10.299-1.842-14.227-2.633-6.283-1.266-6.505-1.5-6.652-1.655l5.378.456Z"/><path id="Fill-38" fill="#B7D05E" d="M61.472 225.047s-23.475-24.662-17.976-62.554c5.498-37.89 48.265-37.85 47.959-1.04-.306 36.81-8.045 47.048-29.983 63.594"/><path id="Fill-40" fill="#A1B25F" d="m63.316 222.06-.812-.22 11.715-77.468 1.663-5.207-11.707 77.808 22.519-63.949.172 2.354z"/><path id="Fill-42" fill="#A1B25F" d="m61.233 222.642-12.576-59.944-.106-4.615 12.472 59.005-3.337-74.714 1.361 7.637 3.036 72.392z"/></g><g id="Group-47-Copy" transform="matrix(-1 0 0 1 54 128)"><g id="Group-7" transform="translate(17)"><mask id="mask-28" fill="#fff"><use xlink:href="#path-27"/></mask><path id="Fill-5" fill="#7AA348" d="M10.955 28.97s-14.22-11.535-10-23.048C5.177-5.59 26.012.641 19.393 21.411c0 0-2.152 5.357-8.437 7.56" mask="url(#mask-28)"/></g><path id="Fill-8" fill="#6D894A" d="M32.571 23 32 22.96l1.24-12.156L34 9z"/><path id="Fill-10" fill="#6D894A" d="M25.593 24 25 23.99 25.484 4 26 7.185z"/><path id="Fill-12" fill="#6D894A" d="M22.495 21 20 7l.904 2.148L23 20.912z"/><path id="Fill-14" fill="#8FBC58" d="M18.725 48.455S6.692 33.107 12.956 22.26c6.264-10.847 46.577-1.88 28.352 37.262C23.083 98.665 9 72.338 9 72.338l9.725-23.883Z"/><path id="Fill-16" fill="#86A85A" d="M29.471 77 29 76.873 39.722 35.95 41 33z"/><path id="Fill-18" fill="#86A85A" d="M26.548 73 26 72.977l2.32-46.362L29 24z"/><path id="Fill-20" fill="#86A85A" d="M21.419 58 19 25l.787 2.77L22 57.97z"/><g id="Group-24" transform="translate(8 137)"><mask id="mask-30" fill="#fff"><use xlink:href="#path-29"/></mask></g><g id="Group-27" transform="translate(5 132)"><mask id="mask-32" fill="#fff"><use xlink:href="#path-31"/></mask></g><path id="Fill-28" fill="#7CA34D" d="M28 62.954s-1.797-26.58-16.99-16.788C-4.185 55.956-7.943 94.337 28 106V62.954Z"/><path id="Fill-30" fill="#75934E" d="M30.534 88 14.785 51.118 14 48l17 39.813z"/><path id="Fill-32" fill="#75934E" d="M32.982 91c-1.384-.05-3.666-1.77-6.976-5.26-2.58-2.719-5.756-6.493-9.44-11.219-6.27-8.04-10.116-13.607-10.172-13.689L5 58c.056.081 5.696 8.19 11.957 16.22C27.374 87.578 31.431 90.45 33 90.507l-.018.493Z"/><path id="Fill-34" fill="#75934E" d="M35 96c-3.191 0-9.72-3.539-19.403-10.518A290.215 290.215 0 0 1 2 75l1.988.978C6.404 77.934 27.61 95.504 35 95.504V96Z"/><path id="Fill-36" fill="#75934E" d="M13.953 94.226c.387.19 2.746.542 8.832 1.485 3.391.526 11.663 1.756 15.215 1.834l-.012.455c-3.634-.08-12.068-1.339-15.525-1.877a331.135 331.135 0 0 1-7.811-1.304c-3.45-.626-3.571-.742-3.652-.819l2.953.226Z"/><path id="Fill-38" fill="#B7D05E" d="M33.023 121s-12.508-13.267-9.578-33.65c2.93-20.384 25.717-20.361 25.554-.56-.163 19.802-4.286 25.309-15.976 34.21"/><path id="Fill-40" fill="#A1B25F" d="m34.433 119-.433-.117 6.251-41.119L41.14 75l-6.247 41.3 12.016-33.944.092 1.25z"/><path id="Fill-42" fill="#A1B25F" d="m32.56 119-6.505-32.112L26 84.415l6.451 31.61L30.726 76l.703 4.091L33 118.871z"/></g></g><g id="Group-68" transform="translate(432 369)"><path id="Fill-1" fill="#EEA886" d="M99.614 62.788s3.24-1.506 3.742-1.72c.5-.214 1.985.098 3.66.61 1.674.512 3.715 1.978 3.803 2.276.089.297.312.556.076 1.317-.236.76-.84 1.27-.84 1.27s.135 1.079-.655 1.648c0 0 .082 1.022-.917 1.516 0 0 .054 1-.702 1.295 0 0-1.488-.31-2.071-.26-.583.05-3.516-1.117-6.32-2.412 0 0-3.271-1.002.224-5.54"/><path id="Fill-3" fill="#8A664D" d="M86.194 175 84 174.552 107.806 56l2.194.448z"/><path id="Fill-5" fill="#4A3F3F" d="M74.464 169 70 190.882c2.564 7.81 10.197 10.077 10.197 10.077s7.918.867 13.34-5.333L98 173.744 74.464 169Z"/><path id="Fill-7" fill="#C9C3C3" d="M86.277 176 84 175.535 86.72 162l2.28.452z"/><path id="Fill-9" fill="#C9C3C3" d="M74.464 169 70 190.882c2.564 7.81 10.197 10.077 10.197 10.077s7.918.867 13.34-5.333L98 173.744 74.464 169Z"/><path id="Fill-11" fill="#CF8C6C" d="M103.487 65s-.987 1.516-1.415 1.742c-.429.227 1.208 4.258 1.208 4.258s1.472-4.246.207-6"/><path id="Fill-13" fill="#EEA886" d="M98.346 65.77s1.668-.83 2.546-1.694C101.772 63.212 103 70 103 70s-3.039-.199-5.332-.378c-1.829-.144.678-3.852.678-3.852"/><path id="Fill-15" fill="#385369" d="M74.62 64.1c3.324.99 24.278 4.9 24.278 4.9L101 62.054s-10.685-1.787-14.19-2.93c-2.686-.876-7.277-2.049-7.694-2.306-.417-.257-9.984-10.727-10.559-11.958-.574-1.233-2.579-5.71-4.772-8.02-2.191-2.311-5.146-1.79-5.146-1.79-6.575 4.212 1.206 14.549 1.206 14.549s2.585 2.886 5.358 6.824c0 0 4.997 6.361 9.417 7.677"/><g id="Group-19" transform="translate(103 64)"><mask id="mask-34" fill="#fff"><use xlink:href="#path-33"/></mask><path id="Fill-17" fill="#DB9C7C" d="M7.208.83S2.785-.34 2.505.337c-.28.677.035 1.093.035 1.093l-2.043.33s-1.227.968.205 1.998c0 0-1.242.788.262 1.62 0 0-.583.88.044 1.386.628.506 3.505 1.143 3.505 1.143s.67-.133.726-1.273c0 0 1.02-.408.95-1.49 0 0 .763-.453.677-1.621 0 0 1.623-1.14.791-2.543 0 0-.262-.101-.45-.15" mask="url(#mask-34)"/></g><path id="Fill-20" fill="#163342" d="M18.503 193s-1.096 2.59-2.02 3.616c-.925 1.027-4.464 2.861-4.483 5.909-.02 3.306 5.966 2.389 8.307 2.268s2.519-1.887 3.505-3.759c.985-1.87 1.98-1.554 2.164-3.063.185-1.51-.755-4.889-.755-4.889L18.503 193Z"/><path id="Fill-22" fill="#163342" d="M59.497 193s1.096 2.59 2.02 3.616c.925 1.027 4.464 2.861 4.483 5.909.02 3.306-5.966 2.389-8.307 2.268-2.342-.121-2.519-1.887-3.505-3.759-.985-1.87-1.979-1.554-2.164-3.063-.185-1.51.755-4.889.755-4.889l6.718-.082Z"/><path id="Fill-24" fill="#F2A200" d="M58.474 149.478c0 4.14 3.526 41.945 3.526 41.945-.405 1.38-9.06 1.212-10.41.522-1.35-.691-5.273-38.154-5.522-42.329-.25-4.175-7.056-38.521-8.24-38.383-1.183.138-5.621 37.085-6.566 40.26-.945 3.174-5.232 40.812-5.232 40.812-2.97 1.794-10.03-.451-10.03-.451s1.48-38.644 1.65-39.81c.25-1.726-.012-6.38.675-16.709.615-9.239 2.835-29.354 4.242-40.247.007-.055.55-4.242.793-6.036 7.431-3.502 22.734-1.776 30.145-.282-.016-.148.54 4.676.631 5.52.665 5.908 1.606 14.558 1.518 15.458-.135 1.38 2.82 35.589 2.82 39.73"/><path id="Fill-26" fill="#F28100" d="m50 187.242.542 4.919s.47.693 5.458.831 5.783-1.558 5.783-1.558L62 187s-4.374 2.009-12 .242"/><path id="Fill-28" fill="#F28100" d="m26 187.242-.497 4.919s-.43.693-5.003.83c-4.572.14-5.301-1.558-5.301-1.558L15 187s4.009 2.009 11 .242"/><path id="Fill-30" fill="#385369" d="M15.576 85S.033 64.868 0 60.773c-.015-1.892 3.384-6.933 5.632-9.899 2.879-3.803 6.81-7.966 8.602-9.743 0 0 8.08-9.928 13.766-4.517 0 0-.167 3.638-1.876 6.39-1.71 2.754-3.88 4.846-4.936 5.729-1.055.882-10.519 11.153-10.667 11.63-.148.478 2.05 6.242 3.445 8.737 1.99 3.558 6.097 11.816 6.097 11.816L15.576 85Z"/><path id="Fill-32" fill="#EEA987" d="M46.834 30.038s1.617.373-5.24 6.962c0 0-4.755-5.41-4.59-6.322.166-.912 9.83-.64 9.83-.64"/><path id="Fill-34" fill="#385369" d="m63 36.62-5.815 19.948a74.61 74.61 0 0 0-.627 2.247l-.009.034a.117.117 0 0 0-.006.023c-.882 3.374-1.973 8.52-2.297 14.235-.221 3.897-.02 16.291-.02 16.291s-7.33 2.688-19.295 1.933c0 0-13.012 3.26-11.963-4.619 2.777-20.859.061-29.458-.302-31.552 0 0-.416-10.937-1.666-19.425C24.621 34.388 38.76 30 38.76 30l8.39.091s11.046 2.916 15.85 6.53"/><path id="Fill-36" fill="#F2A200" d="M56 60.309s-4.892-2.31-6.584-10.119L32.15 50s-5.165 10.377-7.953 10.93c0 0 .544 11.394.196 15.794C24.045 81.125 23 89.448 23 89.448s.882 7.979 31.318 2.81c0 0 .019-18.087.068-18.868.049-.781 1.487-12.622 1.614-13.081"/><path id="Fill-38" fill="#F2A200" d="M49.366 49.424S51.61 38.7 56 32.634c0 0-.5-.445-1.635-.634 0 0-4.924 7.076-6.825 17.404-1.9 10.329 1.826.02 1.826.02"/><path id="Fill-40" fill="#F2A200" d="M31.676 49.157S30.34 39.076 26 32.622c0 0 .7-.45 1.862-.622 0 0 3.967 6.316 5.675 17.178 1.708 10.862-1.86-.021-1.86-.021"/><path id="Fill-42" fill="#EEA987" d="M43.407 3.089s7.759 1.328 6.443 13.656c-1.316 12.329-8.164 11.241-8.623 11.224-.458-.018-6.888.149-7.227-14.925 0 0-.1-11.144 9.407-9.955"/><path id="Fill-44" fill="#EEA987" d="M45.803 23.415s-.231 5.035.177 6.13c.407 1.096-5.382 4.563-8.98.614 0 0 .727-5.503.502-7.446-.226-1.943 8.3.702 8.3.702"/><path id="Fill-46" fill="#EEA987" d="M49.594 12.404s1.009-.925 1.363.024c.355.95-1.612 5.158-1.489 5.35 0 0-.187.364-.423.16-.238-.204.55-5.534.55-5.534"/><path id="Fill-48" fill="#EEA987" d="M34.492 12.427s-1.005-.945-1.42-.024c-.415.922 1.1 5.06 1.289 5.315 0 0 .326.424.583.232.257-.192-.452-5.523-.452-5.523"/><path id="Fill-50" fill="#385369" d="M49.943 11.322a71.132 71.132 0 0 1-.517 2.757l-1.122 1.403s.066-3.103-.105-3.59a9.1 9.1 0 0 1-.22-.867c-.129-.585-.26-1.244-.351-1.464-.145-.351-6.609-2.16-12.367.379 0 0 .05.478.046 1.01-.002.62-.073 1.313-.37 1.418-.552.193-.321 3.632-.321 3.632l-.898-.992s-.26-1.796-.515-3.861l-.002-.015c-.058-.481-.117-.976-.173-1.468-.129-2.077.086-5.847 2.91-8.062 1.904-.782 4.998-.982 10.07.505 0 0 .64-.123 1.437-.088 3.158 3.328 2.498 9.303 2.498 9.303"/><path id="Fill-52" fill="#C78D71" d="M38 26s1.352 1.774 4.494 1.706C45.636 27.64 47 26.092 47 26.092s-1.487 2.94-4.52 2.908c-3.034-.031-4.48-3-4.48-3"/><path id="Fill-54" fill="#EDDCCF" d="M50.755 11s-.703-.139-2.054-.285c-2.43-.26-6.957-.542-13.25-.072-.71.053-1.443.115-2.199.189l-.003-.014c-.02-.093-.128-.625-.18-1.41-.135-1.993-.369-5.647 2.583-7.774C36.908.727 39.112-.008 41.543 0c4.117.013 5.81.924 7.193 2.264C52.038 5.459 50.755 11 50.755 11"/><path id="Fill-56" fill="#CCBEB2" d="M51 10.99s-3.095 1.084-8.55 1.006c-5.457-.078-8.45-1.164-8.45-1.164s3.15-.88 8.655-.83c5.505.051 8.345.988 8.345.988"/><path id="Fill-58" fill="#EEA987" d="M36 29.614s1.86 4.062 5.608 4.366c3.746.304 5.099-2.967 5.392-4.972 0 0-5.209-2.63-11 .606"/><path id="Fill-60" fill="#F28100" d="M44.175 65h-10.35L29 69.945V85h20V69.945z"/><path id="Fill-62" fill="#EEA886" d="M18.584 81s.595.565 1.3.623c1.217.1 2.765-.976 3.887.228 1.122 1.203-2.186 5.596-3.223 6.053-1.038.457-3.095-.715-5.087-3.497C13.468 81.627 18.584 81 18.584 81"/><path id="Fill-64" fill="#EEA886" d="M22.95 81s2.121 1.02 4.34 2.463c1.947 1.266 4.017 3.053 3.672 3.582-.472.723-1.936-.893-3.951-2.01-1.855-1.028-1.665-.494-1.665-.494s-.046-.155 1.754 1.383c1.936 1.655 3.994 3.683 3.575 4.161-.263.301-.266.364-1.066-.114.4.38.353.552.212.747-.733 1.008-3.955-.948-5.234-1.725.979.604 1.632 1.158.807 1.484-.944.372-5.373-2.612-7.063-3.517-1.844-.989 4.618-5.96 4.618-5.96"/><path id="Fill-66" fill="#385369" d="M21 80.86S19.951 82.94 16.674 85c0 0-6.647-8.846-9.674-14h9.21s4.07 8.063 4.79 9.86"/></g><g id="Group-21" transform="translate(943 347)"><g id="Group-40"><path id="Fill-1" fill="#C4BEBE" d="M79.395 241.122h176.008V.145H79.395z"/><path id="Rectangle" fill="#F0F0F0" d="M256 0h253v233H256z"/><path id="Rectangle-Copy-2" fill="#FFF" d="M342 0h167v180H342z"/><path id="Rectangle-Copy-3" fill="#D7FAFF" d="M350 0h160v174H350z"/><path id="Rectangle-Copy-5" fill="#FDFFFE" d="M385.664 0h43L572 156.909h-43z" opacity=".8"/><path id="Rectangle-Copy-6" fill="#FDFFFE" d="M365 0h17.615l158.721 173.909h-17.615z" opacity=".8"/><path id="Rectangle-Copy-4" fill="#C4BEBE" d="M350 0h3v174h-3z"/><path id="Fill-2" fill="#E3DCDC" d="M74.957 241.122h118.048V22.693H74.957z"/><g id="Group-39" transform="translate(0 .08)"><path id="Fill-3" fill="#326EA0" d="M104.785 69.24H74.957V39.448h35.15v24.457a5.328 5.328 0 0 1-5.322 5.335"/><path id="Fill-5" fill="#877373" d="m80.996 73.584.649.008.033-2.88-14.544-2.391.079-6.728 2.51.03.008-.65-3.159-.037-.092 7.937 14.544 2.39z"/><path id="Fill-7" fill="#E3DDDD" d="m71.189 65.036 21.83.256.087-7.458-21.83-.256z"/><path id="Fill-9" fill="#877373" d="M79.697 92.776h3.237v-19.72h-3.237z"/><path id="Fill-11" fill="#EEA886" d="M84.99 86.89s-.73.637-1.157.75c0 0-.787.138-1.344.275-.176.045-.33.087-.427.126-.406.163-1.265.655-2.317.744-1.05.09-5.581-.833-5.581-.833l-.055-2.956-.543-2.66s5.668-4.278 6.648-4.49c.096-.02.19-.036.28-.043.84-.09 1.468.24 1.91.25.161.004 1.759.173 1.999.624.335.627.33 1.235.121 1.716 0 0 .605 1.264.42 2.258 0 0 .592 1.142.055 2.33 0 0 .48 1.247-.009 1.91"/><path id="Fill-12" fill="#F2A200" d="M22.115 71.398s-6.857 20.5-6.045 21.156c.812.654 19.076 5.521 19.076 5.521s-2.417 16.752-3.432 16.604C30.3 114.474 4.936 100.621 4.207 98.86 3.48 97.1 9.22 87.21 9.22 87.21s8.552-18.919 12.895-15.812"/><path id="Fill-13" fill="#323657" d="M48.31 236.82s5.694-1.21 5.891-1.388c.197-.178 1.383-2.462 2.274-2.083.89.38.95 3.133 1.822 3.584.871.45 7.772 4.949 8.624 5.775.853.826 6.01.24 6.628 1.69.618 1.451.728 4.902-6.99 4.227-7.72-.677-16.496.736-18.17-.148-1.675-.884-.57-9.425-.079-11.657"/><path id="Fill-14" fill="#323657" d="M2.265 233.635s5.814-.28 6.037-.424c.223-.144 1.758-2.208 2.576-1.69.819.516.438 3.244 1.227 3.829.789.584 6.882 6.132 7.592 7.084s5.893 1.2 6.272 2.732c.378 1.53-.064 4.955-7.575 3.05-7.512-1.906-16.4-1.92-17.912-3.06-1.512-1.141.943-9.395 1.783-11.52"/><path id="Fill-15" fill="#EEA886" d="M37.845 59.448a26.096 26.096 0 0 0-.683 2.278c-.869 3.509-.869 6.552-.869 6.552.512 2.113-8.44-6.428-8.44-6.428s.475-7.012-.245-14.832c-.72-7.818 10.237 12.43 10.237 12.43"/><path id="Fill-16" fill="#DBDFF0" d="M41.61 102.148c-.227.882-.458 1.798-.688 2.76-.106.442-.204.9-.294 1.374-1.3 6.793-.62 16.6.463 27.634 0 0-4.788 1.506-30.138 5.6-1.007-32.965 5.228-63.7 5.228-63.7 2.618-8.506 5.505-9.83 11.398-14.3 0 0 1.14.046 9.155 5.794.56.402 3.157 5.6 4.78 11.385 2.87 10.236 2.133 15.534.096 23.453"/><path id="Fill-17" fill="#F2A200" d="M34.552 92.957a17.035 17.035 0 0 1-1.844 2.598c-1.928 2.244-4.296 3.85-6.358 4.43-1.09.308-2.097.327-2.905 0a2.811 2.811 0 0 1-.218-.099c-4.029-2.038-7.486-26.123-.09-30.37 0 0 3.535-1.796 6.976-.353 3.442 1.443 5.893 7.518 6.35 16.378.137 2.668-.642 5.216-1.911 7.416"/><path id="Fill-18" fill="#EEA886" d="M43.11 39.807s3.017 4.537 1.812 5.4c-.996.713 1.729 5.187 2.1 5.926.37.738-1.784 1.5-2.206 2.039-.423.536-1.245 6.735-3.045 7.088-1.8.354-10.255-1.732-12.702-3.847-2.446-2.114-5.256-12.44-4.181-17.007 1.074-4.567 12.904-7.521 18.221.4"/><path id="Fill-19" fill="#754836" d="M43.742 40.736s.468-2.328-4.656-5.71c-5.125-3.38-11.636 1.143-12.603 1.492-.967.35-5.196 5.195-2.789 10.893 4.022 9.522 4.31 9.223 4.31 9.223s.41-5.941 2.155-6.525c1.895-.634 4.515-1.418 4.515-1.418s-2.1-4.318.47-5.198c2.568-.88 5.847-3.496 8.598-2.757"/><path id="Fill-20" fill="#EEA886" d="M33.571 49.123c-.18-.512-.999-2.8-2.798-2.276s-.912 3.35.664 4.902c1.577 1.55 3.138.227 2.134-2.626"/><path id="Fill-21" fill="#FAB546" d="M44.362 40.679s-5.6-14.124-17.271-7.63c-13.577 7.554-1.511 18.766-1.511 18.766s3.288-6.418 18.782-11.136"/><path id="Fill-22" fill="#FAB546" d="M43.84 39.45s2.087-.039 3.4.219c4.045.793-8.639 2.982-9.714 3.494-10.015 4.76 6.313-3.712 6.313-3.712"/><path id="Fill-23" fill="#F2A200" d="M32.062 70.693s-5.821-5.557-11.218 1.732c-2.97 4.011-.264 8.984 16.193 22.612 0 0 6.593 6.723 8.526 7.11 6.983 1.394 27.537-10.8 29.394-12.349l-1.36-7.66s-7.777 3.84-12.922 5.208c-5.592 1.487-10.267 3.486-10.267 3.486L32.062 70.693Z"/><path id="Fill-24" fill="#CCD0E0" d="m27.58 61.516.166-1.16 9.128 5.398-.14 1.556z"/><path id="Fill-25" fill="#3B3F66" d="m2.265 233.635 1.545-5.133 6.934.998-.954 4.621z"/><path id="Fill-26" fill="#555C94" d="m47.873 234.022.437 2.798 7.548-1.399-.477-4.182z"/><path id="Fill-27" fill="#DBDFF0" d="M30.094 144.297s-1.171 10.029-2.458 20.307c-.292 2.339-.591 4.692-.882 6.94-.96 7.387-1.85 13.67-2.229 14.77-1.023 2.968-11.494 48.348-11.494 48.348S.372 236.064 0 234.849c0 0 9.822-50.928 9.683-52.61-.14-1.683 1.507-49.122 1.507-49.122s18.342 8.454 18.904 11.18"/><path id="Fill-28" fill="#DBDFF0" d="M40.233 129.895s9.889 46.395 10.727 49.946c.84 3.55 8.943 56.979 8.943 56.979s-5.442 3.652-12.998 2.199c0 0-11.517-56.26-12.413-57.962-3.474-6.604-15.509-39.354-17.187-43.932-1.677-4.58-6.317-9.206-6.317-9.206s12.123-7.112 29.245 1.976"/><path id="Fill-29" fill="#BCC0CF" d="M27.636 164.604c-.292 2.338-.591 4.692-.882 6.94l-.001-.003c-3.561-9.027-8.184-30.833-8.256-31.175.498 1.348 9.14 24.238 9.14 24.238"/><path id="Fill-30" fill="#E3DDDD" d="M73.566 61.307c0 2.06-1.046 3.73-2.335 3.73-1.29 0-2.336-1.67-2.336-3.73s1.046-3.73 2.336-3.73c1.29 0 2.335 1.67 2.335 3.73"/><path id="Fill-31" fill="#B5B0B0" d="M95.377 61.56c0 2.061-1.046 3.732-2.336 3.732-1.29 0-2.335-1.67-2.335-3.731 0-2.06 1.046-3.73 2.335-3.73 1.29 0 2.336 1.67 2.336 3.73"/><path id="Fill-32" fill="#326EA0" d="M74.957 52.406h118.048V.066H74.957z"/><path id="Fill-33" fill="#D68833" d="M34.552 92.957a17.035 17.035 0 0 1-1.844 2.598c-5.524-5.717-9.64-13.441-9.766-13.682 1.667 2.224 11.61 11.084 11.61 11.084"/><path id="Fill-34" fill="#326EA0" d="M137.53 248.778h21.463v-28.529H137.53z"/><path id="Fill-35" fill="#EBEBEB" d="M137.53 248.778h21.463v-20.53H137.53z"/><path id="Fill-36" fill="#D1D1D1" d="M137.53 248.778h21.463v-1.112H137.53z"/><path id="Fill-37" fill="#5F6069" d="M143.61 236.09c-2.625 0-4.59-.869-5.839-2.584-3.243-4.45-.356-12.896-.242-13.257h.48c-.027.086-2.953 8.722.147 12.976 1.155 1.584 2.99 2.387 5.455 2.387 5.958 0 9.588-3.215 11.584-5.911 2.347-3.173 3.334-7.03 3.415-9.452h.383c-.077 2.314-.842 6.258-3.416 9.736-2.061 2.785-5.81 6.106-11.966 6.106"/><path id="Fill-38" fill="#A77860" d="M37.728 59.785a26.183 26.183 0 0 0-.565 1.941c-4.338-1.032-7.128-4.647-7.128-4.647 2.908 1.61 7.693 2.706 7.693 2.706"/></g></g></g><g id="Group-41" transform="translate(1206 415)"><g id="Group-30" transform="translate(.5)"><path id="Fill-5" fill="#285173" d="M137.972 70.212h12.941V49.714h-12.941z"/><path id="Fill-7" fill="#EEA886" d="M130.96 64.343s.912-.25 1.376-.873c.8-1.076.609-3.093 2.466-3.487 1.856-.394 4.375 5.043 4.237 6.252-.137 1.21-2.5 2.489-6.446 2.842-3.945.354-1.632-4.734-1.632-4.734"/><path id="Fill-8" fill="#EEA886" d="M134.19 60.205s2.348-1.655 5.17-3.19c2.475-1.347 5.608-2.494 6.02-2.095.919.889-2.03 2.012-4.404 3.507-2.186 1.377-1.808 1.152-1.808 1.152s-.18-.033 2.467-1.087c2.847-1.133 5.864-2.013 6.334-1.516.228.241.701 1.129-.54 1.26.625-.215.51-.298.61-.05.513 1.279-3.448 3.58-5.021 4.494 1.212-.694 2.169-1.079 1.96-.06-.24 1.167-5.973 4.178-7.934 5.447-2.14 1.385-2.854-7.862-2.854-7.862"/><path id="Fill-9" fill="#D4D8E8" d="M89.485 24.533s-5.97-.43-10.182 0c-4.212.43-10.034 3.871-13.556 4.865-3.524.994-12.025 6.698-11.795 7.477.23.78 3.523 10.061 9.612 17.598 5.212 6.451 25.92-29.94 25.92-29.94"/><path id="Fill-10" fill="#A9ADBA" d="M76.605 28.273s-6.435 4.756-8.676 9.114c-2.24 4.358-3.003 9.55-3.003 9.55l11.679-18.664Z"/><path id="Fill-11" fill="#1C4154" d="M81.482 169.89s1.837 1.948 2.9 2.465c1.063.515 13.758 2.694 14.62 3.727.862 1.032.862 5.102-2.413 5.102-3.274 0-14.188-.057-16.027 0-1.838.057-9.602 1.605-10.402 0-.799-1.605-.725-9.097.695-10.894 1.42-1.796 10.627-.4 10.627-.4"/><path id="Fill-12" fill="#2A617D" d="m81.09 167.612.392 2.277s-3.39 1.548-10.627.401v-2.35l10.236-.328Z"/><path id="Fill-13" fill="#1C4154" d="M3.996 163.583s-2.01 2.35-2.126 3.784c-.115 1.433-2.584 7.74-1.666 9.289.92 1.548 8.157 1.777 11.776 1.203 3.62-.573 11.489.632 12.293-.917.804-1.548 1.264-3.805-1.091-4.683-2.356-.879-7.755-3.171-8.732-5.58-.976-2.408-10.454-3.096-10.454-3.096"/><path id="Fill-14" fill="#2A617D" d="m15.454 164.1-1.004 2.58s-10.368-.777-10.454-3.097l3.274-4.759 8.184 5.275Z"/><path id="Fill-15" fill="#EEA886" d="M100.586 20.14s-5.78 4.9-7.424 4.5c-1.645-.4 5.668 10.363 5.668 10.363s6.962-6.84 8.531-7.047c1.569-.208-6.775-7.816-6.775-7.816"/><path id="Fill-16" fill="#D4D8E8" d="M102.053 60.484c-.496.688-.896 1.18-1.152 1.404a24.63 24.63 0 0 1-.63.525l-.004.002c-2.339 1.867-7.587 5.498-10.011 6.812-2.682 1.454-9.19 14.219-9.19 14.219s-22.557-2.14-28.072-14.524c0 0 3.907-8.716 7.468-13.875 3.561-5.16 11.374-23.738 15.51-26.375 4.135-2.637 7.697-4.358 15.854-4.128 8.156.229 12.676 6.69 12.676 6.69s6.203 6.65 6.815 10.166c.528 3.026-6.206 14.83-9.264 19.084"/><path id="Fill-17" fill="#D4D8E8" d="M100.978 39.49c-1.967 1.185-2.298 1.567-2.068 7.186.23 5.619 2.566 10.148 2.738 11.696.173 1.548 3.299 16.903 4.16 17.763.862.86 11.16-1.144 13.244-1.787 3.118-.964 16.313-5.426 16.313-5.426l-2.902-6.042s-16.659 3.709-17.194 2.41c-.537-1.3-1.841-12.215-2.3-14.584-.46-2.37.34-6.094-2.496-11.716-2.54-5.034-9.495.5-9.495.5"/><path id="Fill-18" fill="#F2A200" d="M81.446 81.763s3.447 3.822 4.519 4.969c1.072 1.146 15.969 23.66 17.117 26.336 1.15 2.676-5.69 21.599-8.5 28.21-1.475 3.466-11.221 27.35-10.915 27.885.306.535-10.311.889-15.06-1.558 0 0 6.827-20.19 8.266-24.149 2.172-5.979 9.703-22.536 9.933-24.141.23-1.606-12.175-14.845-16.31-17.368C66.358 99.424 56.248 90.48 55.1 89.333c-1.15-1.147-7.66-4.204-7.047-10.014.613-5.81 4.94-10.397 4.94-10.397l28.452 12.84Z"/><path id="Fill-19" fill="#F2A200" d="m62.886 96.138-1.553 4.075c-1.949 5.108-5.097 13.35-5.62 14.653-.766 1.912-4.596 10.17-6.434 11.774-1.838 1.606-32.09 37.842-32.168 38.147-.076.305-11.334-5.504-12.024-7.722 0 0 16.39-21.329 18.917-24.461 2.528-3.136 7.812-7.798 9.575-15.215 1.762-7.415 14.394-35.93 14.434-37 0 0 2.034-8.79 4.981-11.467 2.948-2.677 13.671.458 15.356 6.038 1.686 5.583-5.464 21.178-5.464 21.178"/><path id="Fill-20" fill="#F2A200" d="M100.267 62.415s-13.228-5.572-9.015-16.275c0 0 1.76-2.905 1.914-3.134 0 0-13.173-8.863-15.854-9.474 0 0-6.623 5.599-10.55 9.791 0 0-13.04 23.133-15.548 28.056-2.508 4.923 29.85 12.068 29.85 12.068s7.069-12.877 8.748-13.908c1.68-1.03 9.742-5.374 10.455-7.124"/><path id="Fill-21" fill="#F2A200" d="M93.166 43.006s6.716-8.884 14.894-7.51c0 0-.943-1.532-1.556-1.963 0 0-9.578-.265-15.536 8.045-5.959 8.308 2.198 1.428 2.198 1.428"/><path id="Fill-22" fill="#F2A200" d="M77.312 33.532s6.845-7.06 12.173-8.998c0 0 1.134-.334 2.34.01 0 0-10.774 7.212-11.62 10.544-.844 3.331-2.893-1.556-2.893-1.556"/><path id="Fill-23" fill="#D4D8E8" d="m92.64 24.588 2.44-.962s6.166 1.415 9.728 6.346l-.307 1.474S95.1 29.41 92.64 24.588"/><path id="Fill-24" fill="#A9ADBA" d="M102.053 60.484c-.496.688-.896 1.18-1.152 1.404a24.63 24.63 0 0 1-.63.525l-.004.002-.232-9.247 1.335 4.092c.175.53.683 3.224.683 3.224"/><path id="Fill-25" fill="#D68833" d="m62.886 96.138-1.553 4.075c-2.059-2.364-6.758-11.304-6.758-11.304.305.218 1.29 1.14 1.517 1.344.225.207 6.794 5.885 6.794 5.885"/><path id="Fill-26" fill="#EEA886" d="M113.158.756s9.552 1.704 9.637 9.778c.084 8.074-7.317 19.77-12.128 18.905-4.81-.866-10.282-5.129-10.095-10.04.185-4.912 1.549-11.366 3.767-14.908 2.216-3.542 6.15-3.91 8.82-3.735"/><path id="Fill-27" fill="#E8734D" d="M100.904 15.658s.018 1.648 3.304 2.953c3.287 1.305 9.322-.522 10.837-.22 1.516.304 1.964-.425 1.964-.425l.107 1.61 1.284.872s.9-4.291 3.6-4.664c2.697-.374 4.948-12.688-6.691-15.017 0 0-8.615-2.337-10.838 2.028-2.223 4.363-3.983 9.79-3.567 12.863"/><path id="Fill-28" fill="#EEA886" d="M115.5 17.666c.217-.7-.307-3.378-2.02-1.853-1.712 1.524-1.705 4.939-.739 5.218.967.279 2.209-1.588 2.759-3.365"/><path id="Fill-29" fill="#E8734D" d="M109.098 2.635s-8.29-5.883-8.335 14.177l8.335-14.177Z"/></g></g></g></g></g></svg>